PathFileType	4	(X/Y/Z)	C:/Users/beibeiliu/ov580/test_trc/User1\sequence.6_training_dense_right.trc
DataRate	CameraRate	NumFrames	NumMarkers	Units	OrigDataRate	OrigDataStartFrame	OrigNumFrames
120	120	21	19	mm	120	208	277
Frame#	Time	ThumbCMC			ThumbMCP			ThumbIP			ThumbTip			IndexMCP			IndexPIP			IndexTip			MiddleMCP			MiddlePIP			MiddleTip			RingMCP			RingPIP			RingTip			PinkyMCP			PinkyPIP			PinkyTip			BackHand1			BackHand2			BackHand3	
		X0	Y0	Z0	X1	Y1	Z1	X2	Y2	Z2	X3	Y3	Z3	X4	Y4	Z4	X5	Y5	Z5	X6	Y6	Z6	X7	Y7	Z7	X8	Y8	Z8	X9	Y9	Z9	X10	Y10	Z10	X11	Y11	Z11	X12	Y12	Z12	X13	Y13	Z13	X14	Y14	Z14	X15	Y15	Z15	X16	Y16	Z16	X17	Y17	Z17	X18	Y18	Z18	
207	1.725	88.7536	130.315	33.9569	78.5166	108.654	2.37017	72.4595	99.1676	-25.568	77.3052	85.9186	-45.8771	100.259	149.51	-50.4806	99.4437	139.514	-74.4021	97.1505	126.902	-95.4006	117.782	126.145	-55.4976	106.139	96.3235	-57.187	98.6704	87.5179	-16.6552	135.797	107.883	-41.0843	115.599	77.0221	-30.4063	109.609	76.2431	-1.65731	152.155	99.4876	-27.5756	128.824	78.6325	-17.6252	116.824	95.697	5.87717	153.489	143.854	7.01514	158.366	141.792	45.2734	123.693	157.217	27.9461	
208	1.73333	88.2435	130.356	32.5902	75.5865	107.524	4.89093	75.0742	99.1742	-25.0417	78.8309	86.1962	-49.1886	98.4619	143.718	-49.2785	94.2001	129.814	-69.9061	90.7733	106.932	-93.8414	116.621	124.485	-54.6357	106.462	92.2734	-55.2559	101.754	85.1355	-16.1616	133.241	106.327	-41.6723	116.228	79.3071	-33.7329	110.469	76.6713	0.540796	149.164	93.9012	-28.9675	131.484	75.8538	-18.3308	118.786	92.3726	8.02726	151.744	141.271	6.86447	156.084	142.915	41.352	124.225	155.9	22.8061	
209	1.74167	86.82	129.978	33.2925	77.0454	107.558	2.51721	76.0888	98.4721	-22.953	80.1221	84.881	-48.2842	99.3577	141.019	-47.7117	95.306	122.477	-70.6927	92.3813	102.659	-87.3558	120.621	123.183	-52.3896	106.706	89.809	-53.7482	99.3404	86.0782	-15.1194	133.654	103.477	-41.8842	115.922	73.4124	-27.3506	111.846	77.7131	5.85923	149.713	93.2346	-28.6304	127.716	77.0278	-15.4536	119.671	91.3901	10.2176	156.269	138.092	4.59669	158.02	138.482	41.6888	126.43	153.089	23.2937	
210	1.75	92.2222	129.681	33.6193	80.2468	108.312	1.28656	78.2909	97.8991	-25.1833	78.7015	84.2258	-43.231	98.9752	140.767	-51.1295	96.8903	126.285	-70.8928	89.4285	105.687	-93.5235	119.605	119.946	-56.0172	101.822	91.2233	-54.052	100.463	84.3997	-16.8557	135.788	104.023	-41.3931	114.435	75.9676	-30.2603	108.101	76.7307	1.43365	153.893	94.7781	-27.2972	129.355	77.4693	-17.9194	120.47	92.9799	7.93808	152.858	139.354	6.31413	157.113	141.169	44.1497	124.895	155.129	25.2432	
211	1.75833	88.1087	130.097	31.7816	74.6106	107.106	4.94519	72.7648	97.5593	-24.4374	76.5252	83.0847	-47.0528	99.7545	143.914	-52.3476	96.325	133.62	-74.1884	91.7	116.551	-98.4241	119.028	124.892	-53.9562	104.829	93.1724	-56.0005	100.025	83.5256	-18.3334	132.153	102.199	-42.4001	116.924	73.3871	-31.3978	110.799	73.6243	0.959047	152.585	91.5687	-28.3363	130.138	78.3226	-21.9031	118.588	94.2934	8.01782	153.879	140.053	4.14013	158.742	137.152	43.2325	127.132	155.19	23.0716	
212	1.76667	88.1729	130.098	30.4456	79.8392	106.941	4.83102	72.4544	97.147	-23.9004	77.5099	83.4436	-48.0104	100.447	149.879	-50.2178	97.6682	142.415	-71.6344	95.1473	133.116	-100.099	119.777	123.598	-56.4684	103.974	95.6759	-57.595	100.948	82.1628	-20.4582	136.191	99.9411	-43.3856	115.115	75.3737	-32.9864	108.651	72.7067	-1.17023	152.406	90.4007	-28.1113	126.796	79.0913	-19.8426	116.339	96.9982	5.27562	155.436	140.673	6.41695	155.783	139.009	40.9954	124.918	155.178	24.9254	
213	1.775	90.1235	129.33	32.4564	77.3103	107.672	0.458639	74.8597	97.3051	-26.0471	80.267	84.973	-50.4539	101.781	153.763	-45.4384	99.4662	150.395	-71.2032	99.0805	147.256	-100.827	121.027	127.581	-53.6115	105.255	94.417	-58.2383	103.292	82.3615	-17.6139	133.002	104.611	-43.9465	117.33	77.6015	-35.6847	105.287	73.9955	-1.9019	153.182	93.8271	-27.8693	127.415	79.7941	-19.8244	112.964	99.3401	-0.858091	156.814	140.731	9.15659	158.443	138.569	44.956	124.341	155.404	29.3035	
214	1.78333	88.5473	129.547	33.3944	80.0804	107.902	4.35136	73.7374	98.3843	-26.4953	76.5358	84.7161	-47.4535	103.422	156.703	-46.6889	104.413	154.981	-71.2462	103.97	155.47	-98.6655	119.284	128.176	-54.4911	108.686	96.0216	-59.6164	99.0192	83.3736	-21.4356	133.417	105.667	-44.4827	115.702	76.9304	-35.819	107.121	72.2165	-5.67061	153.61	92.109	-27.3566	124.817	83.226	-20.8281	111.455	102.019	-0.551226	158.466	140.345	4.7636	161.202	139.795	41.8342	126.882	153.619	27.9165	
215	1.79167	89.4034	130.33	31.4235	79.0388	109.253	0.29227	74.9922	99.9518	-24.2255	75.933	86.6981	-48.5005	106.947	158.679	-47.668	105.921	161.168	-72.0298	108.698	161.801	-96.9487	117.889	128.814	-56.0138	107.001	98.0417	-60.4934	101.563	83.5114	-21.4894	137.082	105.192	-43.3682	114.213	78.867	-35.4055	106.209	74.7997	-7.7448	152.178	94.4823	-28.954	126.969	81.5543	-20.8958	109.946	100.108	-1.03931	155.941	141.784	7.45062	157.952	140.523	42.7994	123.717	157.708	26.0253	
216	1.8	87.3163	130.988	32.0683	79.8001	109.195	2.32919	77.0407	100.664	-26.324	76.7308	88.2464	-50.0926	105.502	161.286	-44.5855	107.254	163.194	-69.3667	112.928	166.436	-95.0586	120.039	132.603	-52.823	106.602	96.8417	-57.6854	97.0109	86.4263	-23.4724	133.998	107.325	-44.5437	117.737	80.6434	-36.9349	106.057	77.4257	-3.5885	152.347	95.9182	-27.5202	124.837	87.1609	-20.7126	113.041	104.602	4.23603	154.974	144.122	5.29789	159.978	141.207	40.7851	125.872	154.674	29.1078	
217	1.80833	88.7647	131.035	33.2332	76.4782	109.897	3.53769	73.1751	101.526	-26.9574	77.6789	88.9541	-46.3603	103.839	164.258	-43.7077	105.145	166.831	-69.1059	112.127	170.477	-94.6866	121.045	129.77	-55.898	107.413	98.3194	-58.6298	100.004	87.3162	-20.0579	134.123	107.523	-44.1616	117.909	79.4162	-34.6682	105.724	77.4711	-4.47533	152.841	96.1692	-27.0481	126.393	85.2043	-20.0271	111.235	105.261	0.0508146	155.891	141.235	7.70952	159.534	141.973	40.3324	125.087	156.125	27.0131	
218	1.81667	89.1582	132.421	33.152	77.1166	110.779	1.42414	72.5422	102.047	-27.5376	74.1977	89.0498	-48.646	104.232	163.674	-43.987	105.099	166.8	-69.9913	114.322	171.443	-95.4091	118.719	132.278	-55.2563	106.243	97.4471	-58.2992	99.5462	87.2115	-19.7676	133.26	106.784	-43.8408	118.86	79.8469	-36.8684	107.35	76.981	-4.79692	151.658	99.2201	-28.9888	127.722	82.3682	-21.1975	112.82	107.239	1.37029	155.871	144.181	8.99173	156.81	143.528	43.0236	127.106	156.953	26.0786	
219	1.825	89.9265	131.301	34.0788	74.302	110.473	2.80196	72.7512	102.837	-26.9586	75.36	89.2339	-47.8965	106.718	161.054	-43.3248	107.189	165.02	-71.2578	111.779	169.634	-92.8938	119.312	131.089	-56.1991	106.098	99.5953	-58.7335	98.7412	87.5155	-21.8971	135.319	105.702	-43.2343	115.86	81.2072	-35.1218	105.434	77.3655	-3.15671	149.615	97.4233	-29.9697	127.275	84.9014	-22.6837	113.242	101.783	2.23468	155.573	142.319	7.69453	155.492	142.077	42.7967	123.404	155.923	29.4315	
220	1.83333	86.3472	133.118	34.1498	76.978	111.497	1.11143	72.1519	101.171	-25.3918	77.3945	89.5411	-50.0139	101.223	162.677	-46.3885	101.542	164.267	-72.7246	104.746	167.396	-96.44	119.746	129.918	-56.2237	101.608	97.9582	-56.1444	101.824	87.7224	-19.97	134.953	110.643	-41.8027	116.847	79.8527	-34.092	105.911	77.5551	-2.89459	149.516	98.7968	-28.7014	125.677	81.6534	-18.2827	112.025	100.696	2.08847	156.347	141.98	7.12845	154.564	141.153	45.2015	123.431	157.192	23.7197	
221	1.84167	87.3436	131.973	32.9064	74.3917	108.883	4.28828	73.9788	100.266	-21.883	78.1488	87.9118	-48.561	102.168	158.018	-47.7749	100.776	155.547	-70.6898	98.0582	154.975	-97.2964	119.74	130.096	-53.1722	99.7826	97.7651	-54.5151	100.424	88.4074	-18.0522	135.579	108.707	-40.2105	115.915	78.211	-31.6064	105.281	77.1978	-2.63305	154.179	95.6853	-27.1875	128.532	82.5947	-21.31	115.42	93.6826	6.15841	155.345	143.65	9.58392	153.835	141.997	45.4214	124.509	157.836	27.6903	
222	1.85	89.0934	131.282	32.6573	77.8826	109.455	7.19955	72.7482	100.051	-24.4077	75.9569	85.6985	-44.4248	99.5167	150.792	-48.824	97.7331	142.777	-74.3839	93.4632	134.492	-95.4949	118.026	129.004	-51.8145	100.384	95.1677	-53.0478	99.1467	87.1193	-17.0531	132.29	104.309	-41.6862	116.383	77.8141	-31.4688	107.79	76.0665	2.36607	151.39	91.8817	-28.58	127.224	79.6725	-17.9453	114.535	93.6183	4.45693	157.927	141.07	8.13489	156.405	141.224	41.52	122.885	156.734	24.8506	
223	1.85833	92.6549	129.788	33.5607	77.6847	109.218	3.01699	75.9167	99.219	-18.9049	78.2035	84.6557	-48.4172	97.1141	143.932	-47.9603	90.301	132.12	-71.2252	89.1346	111.365	-93.1667	115.858	123.675	-54.1481	102.604	90.4943	-50.641	101.455	85.7452	-15.6664	133.349	99.4441	-42.3099	114.032	75.7346	-29.6208	109.005	74.755	4.13574	153.538	95.5723	-26.7346	127.312	77.9568	-17.0025	119.668	91.6186	11.2328	155.331	141.598	7.33008	157.692	142.816	41.1799	125.078	156.629	27.3687	
224	1.86667	90.2362	129.697	34.6296	80.658	107.998	3.70093	77.0513	97.7767	-20.5111	77.1505	82.9104	-44.4456	96.8963	136.779	-48.8153	90.0789	119.759	-68.5153	84.5075	96.4704	-86.557	116.269	122.562	-53.7651	104.664	86.8088	-50.3077	101.266	83.55	-13.3385	136.921	101.395	-39.9736	116.169	71.9796	-28.843	108.596	75.0649	3.95372	151.793	91.067	-27.9545	128.195	76.3161	-17.104	118.986	87.9568	9.59522	156.996	138.122	3.83492	158.203	138.528	40.4202	127.207	154.503	26.2187	
225	1.875	90.1831	128.006	33.2019	78.194	104.627	6.70238	76.3172	95.7315	-21.7117	77.9795	81.1172	-44.1522	97.9875	133.499	-48.8599	85.8776	114.985	-67.989	86.6305	90.3872	-81.6141	116.639	118.924	-53.8117	100.887	87.7317	-51.0616	101.51	80.7522	-14.7057	134.436	95.9852	-41.7775	115.023	73.8378	-30.2599	113.125	69.8774	3.04804	148.914	90.2513	-29.2593	131.994	70.7717	-15.2944	119.945	88.691	13.3845	152.857	137.25	3.31449	160.298	137.269	39.9817	125.388	153.845	27.1804	
226	1.88333	93.1819	125.979	36.6568	77.4501	103.555	3.25133	74.9262	93.3199	-19.6528	76.7599	78.97	-45.6449	95.6928	134.879	-45.7718	91.1435	113.944	-67.3594	88.4053	92.1028	-81.494	118.874	116.021	-54.9245	100.799	86.5017	-50.9204	103.403	80.5593	-13.2888	132.584	95.7374	-41.7134	117.427	71.9426	-31.1976	110.327	70.1085	0.598993	152.982	90.8028	-27.1232	130.105	73.4887	-17.5193	117.127	85.2501	9.54733	157.915	136.942	2.9224	157.198	137.65	42.4786	124.585	151.29	25.665	
227	1.89167	93.9249	125.894	36.189	76.8274	101.706	6.24782	77.5914	92.1182	-21.1239	78.7426	78.6695	-40.3797	99.7718	133.747	-50.2996	91.4962	116.8	-71.9403	89.0499	97.4875	-87.5609	119.5	116.474	-54.8363	101.843	86.5982	-51.5884	103.185	79.8862	-14.0677	132.99	95.7513	-41.7016	115.011	71.2593	-31.4052	111.147	68.1108	3.96975	151.62	88.2511	-27.8797	128.199	73.0009	-16.1003	118.581	86.4233	10.1369	156.991	135.676	4.1766	158.579	137.518	43.1542	128.77	150.531	27.9414	
